<?xml version="1.0" encoding="UTF-8"?>
<svg version="1.1" xmlns="http://www.w3.org/2000/svg" width="512" height="512">
<path d="M0 0 C1.09016922 0.00273422 1.09016922 0.00273422 2.20236206 0.00552368 C12.99291225 0.05107722 23.27342197 0.50143542 33.75 3.3125 C34.40097656 3.48410645 35.05195313 3.65571289 35.72265625 3.83251953 C71.2391794 13.40453047 103.37502605 36.16721006 122.33789062 67.97607422 C137.29662262 94.20811905 143.54585736 119.99727824 143 150.125 C142.97985606 152.10089287 142.96161957 154.07680612 142.9453125 156.05273438 C142.90205262 160.80651125 142.83348583 165.55926653 142.75 170.3125 C143.56807129 170.23233643 144.38614258 170.15217285 145.22900391 170.06958008 C152.31658905 169.43901383 159.05109066 169.24847399 166.125 170 C167.02492676 170.09249023 167.92485352 170.18498047 168.85205078 170.28027344 C194.55130809 173.18202395 216.53926008 184.26508511 234.75 202.3125 C235.49894531 203.01246094 236.24789063 203.71242187 237.01953125 204.43359375 C242.07024462 209.23322003 246.00865896 214.44614288 249.75 220.3125 C250.3996875 221.30636719 251.049375 222.30023438 251.71875 223.32421875 C262.55395856 240.93143266 267.15168244 260.53632121 267.0625 281.0625 C267.05976578 282.05795334 267.05976578 282.05795334 267.05697632 283.07351685 C267.01162545 292.8727018 266.57557392 301.88243421 263.75 311.3125 C263.43289063 312.48425781 263.11578125 313.65601563 262.7890625 314.86328125 C258.21506919 330.22346445 250.59298176 344.50105577 239.75 356.3125 C238.96238281 357.21742188 238.17476563 358.12234375 237.36328125 359.0546875 C229.96202476 367.49578994 229.96202476 367.49578994 225.75 370.3125 C223.4609375 370.31640625 223.4609375 370.31640625 221.125 369.875 C216.74031013 369.68349999 214.43457501 370.84490059 211.12231445 373.73120117 C206.51617432 378.16496921 206.51617432 378.16496921 204.26953125 384.0234375 C204.38027045 385.69740218 204.53307886 387.36918562 204.73046875 389.03515625 C204.75497369 391.89243233 204.0802546 392.84308579 202.25 395 C201.11283492 396.13452665 199.94461398 397.23863195 198.75 398.3125 C198.18152344 398.85132813 197.61304688 399.39015625 197.02734375 399.9453125 C181.78806512 413.85802972 164.38621501 424.60660132 145.75 433.3125 C144.62335938 433.84617187 143.49671875 434.37984375 142.3359375 434.9296875 C95.49313419 456.10219579 41.19889571 454.79636705 -6.35644531 437.05712891 C-7.90660562 436.44753776 -9.42436471 435.75613188 -10.9296875 435.04296875 C-16.04601054 433.43227446 -20.94799626 435.83858855 -25.76977539 437.58520508 C-70.2281732 453.57998344 -121.78962943 457.3089767 -165.375 437.18359375 C-199.04549133 421.1448363 -225.23825123 392.20155826 -238.234375 357.2109375 C-243.68345804 341.22866059 -245.80397379 325.31613503 -245.625 308.5 C-245.62034729 307.71468903 -245.61569458 306.92937805 -245.61090088 306.12026978 C-245.52671373 293.96324387 -244.93712708 282.20702508 -242.25 270.3125 C-242.06195801 269.43480957 -241.87391602 268.55711914 -241.68017578 267.65283203 C-237.18493863 247.1077744 -229.67064915 227.04511606 -218.25 209.3125 C-217.64551025 208.37083984 -217.64551025 208.37083984 -217.02880859 207.41015625 C-210.91743179 197.97762883 -204.14972453 189.36420513 -196.70556641 180.95654297 C-184.22901399 166.86444233 -172.91894682 151.84110062 -162.21850586 136.36157227 C-159.46169545 132.41834772 -159.46169545 132.41834772 -157.25 131.3125 C-156.198125 131.498125 -155.14625 131.68375 -154.0625 131.875 C-150.23486103 131.71079135 -150.23486103 131.71079135 -148.33984375 129.30078125 C-146.50922179 126.70059847 -144.85476145 124.05705356 -143.25 121.3125 C-142.198125 119.6728125 -142.198125 119.6728125 -141.125 118 C-140.83625 117.113125 -140.5475 116.22625 -140.25 115.3125 C-141.6053326 112.77576712 -141.6053326 112.77576712 -143.25 110.3125 C-142.99031914 104.81051188 -140.57875119 100.82418266 -137.875 96.1875 C-136.9625985 94.59038219 -136.05117675 92.99270436 -135.140625 91.39453125 C-134.66560547 90.56518066 -134.19058594 89.73583008 -133.70117188 88.88134766 C-132.24072153 86.29607537 -130.8249114 83.69104703 -129.421875 81.07421875 C-124.56916522 72.03099364 -119.73003759 63.31797017 -113.25 55.3125 C-112.43144531 54.28125 -111.61289063 53.25 -110.76953125 52.1875 C-83.51335612 18.48368132 -43.2483651 -0.22546102 0 0 Z " fill="#EFA55E" transform="translate(245.25,31.6875)"/>
<path d="M0 0 C26.05559973 1.21872966 50.15712361 11.90337929 68.1796875 30.90625 C78.88152717 43.21566215 87.27297794 58.06234764 91 74 C91.22300781 74.93585938 91.44601562 75.87171875 91.67578125 76.8359375 C96.75539057 102.06120827 90.73341886 129.45665927 77 151 C72.239303 157.64637272 66.73836896 163.47324036 60.84765625 169.125 C58.31039299 171.69981261 57.04629091 173.27477571 56.8125 176.9375 C56.8598343 179.86318523 56.8598343 179.86318523 57.66137695 181.98706055 C58 184 58 184 57.07885742 185.66333008 C55.47517736 187.41156721 53.86446497 189.13393071 52.1875 190.8125 C51.59090576 191.41416992 50.99431152 192.01583984 50.37963867 192.63574219 C45.82634379 196.9070069 45.82634379 196.9070069 42.2578125 197.30859375 C40.62542911 196.93570106 38.99758612 196.54235368 37.375 196.12890625 C34.87931794 195.76314353 34.87931794 195.76314353 32.6875 197.46484375 C31.03022929 199.01580927 29.40328557 200.59954247 27.80078125 202.20703125 C12.86662872 217.09952645 -5.73176477 227.76199732 -25 236 C-25.63550781 236.27682617 -26.27101563 236.55365234 -26.92578125 236.83886719 C-35.42571684 240.48609628 -44.03412646 242.8814541 -53.0625 244.875 C-54.03848145 245.09051514 -55.01446289 245.30603027 -56.02001953 245.52807617 C-61.11765755 246.59012077 -65.79410892 247.24549278 -71 247 C-70.10679176 240.49233994 -70.10679176 240.49233994 -69.47753906 237.59130859 C-68.62579902 232.96944313 -68.77361362 228.3123035 -68.75 223.625 C-68.729375 222.60921875 -68.70875 221.5934375 -68.6875 220.546875 C-68.65641426 214.56286965 -69.07758971 210.26317581 -72 205 C-73.93889246 202.64360592 -73.93889246 202.64360592 -77.4375 202.625 C-80.93675294 202.68540041 -80.93675294 202.68540041 -83 204.5 C-84.20623088 207.51557721 -83.72616782 209.61651485 -83.28417969 212.77050781 C-81.73919396 224.89147828 -82.5712888 235.94516993 -88 247 C-90.60562129 249.60562129 -92.50939763 249.31282356 -96.06640625 249.38037109 C-122.78436208 249.32428378 -148.08914012 242.71609871 -172 231 C-173.00353516 230.50862549 -173.00353516 230.50862549 -174.02734375 230.00732422 C-203.66959175 215.28158369 -231.29585647 192.46258916 -242.78125 160.65625 C-248.25361535 144.23915394 -249.13299654 125.89033847 -245 109 C-244.65001953 107.40091797 -244.65001953 107.40091797 -244.29296875 105.76953125 C-240.9438803 92.23554369 -234.0658805 77.83814565 -224 68 C-221 67 -221 67 -218.87890625 67.96875 C-212.10187364 72.44867712 -208.77738333 76.23745652 -206.9375 84.3125 C-206.37956467 88.2306432 -206.37956467 88.2306432 -203 90 C-199.81477169 90.49003513 -198.43988798 90.27344388 -195.6875 88.5625 C-193.1047349 84.64052337 -193.131515 81.55954623 -194 77 C-197.13781549 67.78266699 -202.42521915 61.92808936 -210 56 C-207.01426293 51.86251669 -203.66382066 49.02707261 -199.4375 46.25 C-198.4638147 45.60865112 -198.4638147 45.60865112 -197.47045898 44.9543457 C-174.53816222 30.28491727 -150.94808942 25.21500723 -124.19677734 22.98217773 C-102.09693267 21.13537721 -80.78041779 17.3185155 -59.25 12 C-58.26530228 11.75789291 -58.26530228 11.75789291 -57.26071167 11.51089478 C-48.79271928 9.4126583 -40.55484712 6.94040317 -32.33105469 4.05078125 C-24.18978105 1.48261636 -24.18978105 1.48261636 -20.69140625 3.00390625 C-19.63759766 3.77541016 -19.63759766 3.77541016 -18.5625 4.5625 C-17.41007812 5.40554687 -17.41007812 5.40554687 -16.234375 6.265625 C-15.49703125 6.83796875 -14.7596875 7.4103125 -14 8 C-13.36578125 8.46921875 -12.7315625 8.9384375 -12.078125 9.421875 C-3.9951207 15.78813503 -0.47237431 23.47859635 2.140625 33.27734375 C2.8054206 36.11307032 2.8054206 36.11307032 5 38 C9.79811877 38.59083965 9.79811877 38.59083965 13.9375 36.5 C16.45210072 30.58329243 15.18066413 25.88467555 12.9375 20.125 C10.30966338 14.21049593 6.91917942 9.12650958 3 4 C2 2.66666667 1 1.33333333 0 0 Z " fill="#EFA55E" transform="translate(404,217)"/>
<path d="M0 0 C1.09016922 0.00273422 1.09016922 0.00273422 2.20236206 0.00552368 C12.99291225 0.05107722 23.27342197 0.50143542 33.75 3.3125 C34.40097656 3.48410645 35.05195313 3.65571289 35.72265625 3.83251953 C71.2391794 13.40453047 103.37502605 36.16721006 122.33789062 67.97607422 C137.29662262 94.20811905 143.54585736 119.99727824 143 150.125 C142.97985606 152.10089287 142.96161957 154.07680612 142.9453125 156.05273438 C142.90205262 160.80651125 142.83348583 165.55926653 142.75 170.3125 C143.56807129 170.23233643 144.38614258 170.15217285 145.22900391 170.06958008 C152.31658905 169.43901383 159.05109066 169.24847399 166.125 170 C167.02492676 170.09249023 167.92485352 170.18498047 168.85205078 170.28027344 C194.55130809 173.18202395 216.53926008 184.26508511 234.75 202.3125 C235.49894531 203.01246094 236.24789063 203.71242187 237.01953125 204.43359375 C242.07024462 209.23322003 246.00865896 214.44614288 249.75 220.3125 C250.3996875 221.30636719 251.049375 222.30023438 251.71875 223.32421875 C262.55395856 240.93143266 267.15168244 260.53632121 267.0625 281.0625 C267.05976578 282.05795334 267.05976578 282.05795334 267.05697632 283.07351685 C267.01162545 292.8727018 266.57557392 301.88243421 263.75 311.3125 C263.43289063 312.48425781 263.11578125 313.65601563 262.7890625 314.86328125 C258.21506919 330.22346445 250.59298176 344.50105577 239.75 356.3125 C238.96238281 357.21742188 238.17476563 358.12234375 237.36328125 359.0546875 C227.69849448 370.07733687 227.69849448 370.07733687 222.125 370.75 C218.75 370.3125 218.75 370.3125 216.875 368.9375 C214.57919567 365.62133818 214.3536698 363.34020567 214.75 359.3125 C216.4375 356.85546875 216.4375 356.85546875 218.75 354.5 C219.98556641 353.200625 219.98556641 353.200625 221.24609375 351.875 C222.07238281 351.029375 222.89867187 350.18375 223.75 349.3125 C242.96978235 329.26952399 251.3513479 303.44808613 250.96484375 276.05078125 C250.11445332 250.09010446 237.37229989 227.06642928 218.875 209.5 C203.09606473 195.87160108 180.87046126 185.84574948 159.75 186.3125 C160.17410156 186.72757813 160.59820312 187.14265625 161.03515625 187.5703125 C168.27029244 195.17118085 175.22174515 206.55641266 175.0234375 217.3046875 C174.56519375 220.66950588 173.33735828 222.18953936 170.75 224.3125 C167.25 224.9375 167.25 224.9375 163.75 224.3125 C160.21154459 221.46207758 159.47381323 218.44184656 158.5 214.1875 C156.00566066 204.19665973 149.36836754 196.67962709 140.75 191.3125 C140.00492187 190.73242188 139.25984375 190.15234375 138.4921875 189.5546875 C134.67283667 187.82455422 131.89902104 188.78889794 128.0625 189.9375 C127.34626465 190.13480713 126.6300293 190.33211426 125.89208984 190.53540039 C123.8379561 191.10681799 121.79343337 191.70407685 119.75 192.3125 C118.87988281 192.56644531 118.00976562 192.82039062 117.11328125 193.08203125 C115.5726916 193.54178837 114.03370686 194.00694667 112.49609375 194.4765625 C88.1810764 201.87828898 63.46294107 207.00134959 38.11962891 209.00170898 C7.57298637 211.43291383 -26.22059867 216.8347011 -49.25 239.3125 C-49.25 240.3025 -49.25 241.2925 -49.25 242.3125 C-47.44279535 244.02811885 -47.44279535 244.02811885 -45.125 245.75 C-39.13046516 250.90170135 -35.32988617 257.11652598 -33.7109375 264.90625 C-33.44774225 269.0619644 -33.98025166 270.9037904 -36.3125 274.4375 C-39.25 276.3125 -39.25 276.3125 -42.875 276.375 C-46.25 275.3125 -46.25 275.3125 -48.0625 273.75 C-49.39432826 271.01624727 -49.99157299 268.28757042 -50.671875 265.3359375 C-52.03145084 260.57742205 -54.66221942 257.43848324 -58.75 254.8125 C-61.96968282 252.98026909 -61.96968282 252.98026909 -64.265625 253.95703125 C-76.3795393 262.23169318 -83.41166291 283.4729329 -86.25 297.3125 C-88.73798882 313.08537626 -88.34497318 329.15455799 -83.25 344.3125 C-83.04101074 344.9420459 -82.83202148 345.5715918 -82.61669922 346.22021484 C-71.51192885 378.86907154 -42.96485229 400.52568823 -13.078125 415.4140625 C12.9900072 428.11861984 39.81817322 434.13563943 68.75 433.3125 C73.01867801 425.33463091 75.08279575 418.43686622 74.9375 409.375 C74.93685547 408.61509766 74.93621094 407.85519531 74.93554688 407.07226562 C74.90654021 403.29817595 74.69858681 399.66855997 74.14453125 395.93359375 C73.75 392.3125 73.75 392.3125 75.25 389.3125 C77.75 387.3125 77.75 387.3125 81.25 386.75 C84.75 387.3125 84.75 387.3125 87.0625 388.9375 C91.33385983 394.94904346 91.09911396 401.34754942 91.0625 408.4375 C91.06056641 409.97096069 91.06056641 409.97096069 91.05859375 411.53540039 C90.96544191 418.8565527 90.25396469 425.38188344 87.75 432.3125 C127.39773126 426.37882593 162.94372457 410.16282746 191.58203125 381.74609375 C194.45127068 379.84877686 196.37477315 379.99693001 199.75 380.3125 C203.45 381.7125 203.45 381.7125 204.75 384.3125 C205.20170672 387.60350611 205.44565134 390.14965846 203.69140625 393.08203125 C188.82201327 410.93336212 166.50190878 423.61825601 145.75 433.3125 C144.62335938 433.84617187 143.49671875 434.37984375 142.3359375 434.9296875 C95.49313419 456.10219579 41.19889571 454.79636705 -6.35644531 437.05712891 C-7.90660562 436.44753776 -9.42436471 435.75613188 -10.9296875 435.04296875 C-16.04601054 433.43227446 -20.94799626 435.83858855 -25.76977539 437.58520508 C-70.2281732 453.57998344 -121.78962943 457.3089767 -165.375 437.18359375 C-199.04549133 421.1448363 -225.23825123 392.20155826 -238.234375 357.2109375 C-243.68345804 341.22866059 -245.80397379 325.31613503 -245.625 308.5 C-245.62034729 307.71468903 -245.61569458 306.92937805 -245.61090088 306.12026978 C-245.52671373 293.96324387 -244.93712708 282.20702508 -242.25 270.3125 C-242.06195801 269.43480957 -241.87391602 268.55711914 -241.68017578 267.65283203 C-237.18493863 247.1077744 -229.67064915 227.04511606 -218.25 209.3125 C-217.64551025 208.37083984 -217.64551025 208.37083984 -217.02880859 207.41015625 C-210.91743179 197.97762883 -204.14972453 189.36420513 -196.70556641 180.95654297 C-184.22901399 166.86444233 -172.91894682 151.84110062 -162.21850586 136.36157227 C-159.46169545 132.41834772 -159.46169545 132.41834772 -157.25 131.3125 C-153.41385043 130.95730097 -151.10370366 130.76525406 -147.8125 132.875 C-145.60961041 136.31150777 -145.79418631 138.25945395 -146.25 142.3125 C-147.71871998 145.2687934 -149.63081041 147.81532592 -151.625 150.4375 C-152.16938721 151.17887207 -152.71377441 151.92024414 -153.2746582 152.68408203 C-154.91547794 154.90740593 -156.57914716 157.11169171 -158.25 159.3125 C-158.7135791 159.93060547 -159.1771582 160.54871094 -159.65478516 161.18554688 C-166.16559565 169.86662753 -172.92795023 178.36583191 -180.05859375 186.546875 C-191.70947823 199.91715049 -202.14037027 213.48827637 -210.25 229.3125 C-210.60046387 229.98893555 -210.95092773 230.66537109 -211.31201172 231.36230469 C-219.07193422 246.51007412 -224.35033719 262.52902122 -227.25 279.3125 C-227.45496094 280.48039062 -227.65992188 281.64828125 -227.87109375 282.8515625 C-233.16857831 318.14376996 -227.04292953 353.6298786 -205.75 382.75 C-185.17906675 408.83735998 -157.0439496 429.01038101 -123.3125 433.03515625 C-93.69471316 435.40973803 -63.71721366 431.37767923 -35.25 423.3125 C-38.27898796 420.06559923 -41.48906234 417.69581477 -45.1875 415.25 C-69.67406256 398.62409192 -88.92645968 377.49233795 -98.5625 349.125 C-98.92637817 348.0572937 -98.92637817 348.0572937 -99.29760742 346.96801758 C-102.48620522 337.10692103 -103.61710751 327.46509355 -103.5625 317.125 C-103.55831055 316.03219727 -103.55412109 314.93939453 -103.54980469 313.81347656 C-103.42721387 304.9738964 -102.46717497 296.87405874 -100.25 288.3125 C-99.98316406 287.22453125 -99.71632812 286.1365625 -99.44140625 285.015625 C-90.98874612 254.21037475 -68.14690682 230.32002482 -41.25 214.3125 C-36.04143711 211.38044272 -30.68795592 208.78801793 -25.25 206.3125 C-24.06019531 205.76722656 -22.87039062 205.22195312 -21.64453125 204.66015625 C-1.47834173 196.0175036 19.41419025 194.15769649 41.05395508 192.62207031 C44.97425553 192.29371699 48.84993126 191.82463841 52.75 191.3125 C47.94439623 184.58465472 41.60656237 181.171914 34.25 177.625 C31.75 176.3125 31.75 176.3125 29.75 173.3125 C29.29332937 169.7352467 29.31222569 167.97791695 31.3125 164.9375 C33.84324543 163.25033638 35.52700645 162.60144715 38.58203125 162.81640625 C49.16619327 165.23836765 60.33076795 173.42644794 66.2265625 182.61328125 C66.58492188 183.25652344 66.94328125 183.89976562 67.3125 184.5625 C69.38432768 187.48614857 69.38432768 187.48614857 71.88671875 187.65234375 C74.93681995 187.47453516 77.76073863 186.95230682 80.75 186.3125 C81.38019043 186.18375488 82.01038086 186.05500977 82.65966797 185.92236328 C93.23920974 183.73498878 103.48338435 180.64221318 113.75 177.3125 C115.66436164 176.70106891 117.58069815 176.0957423 119.5 175.5 C120.23734375 175.26667969 120.9746875 175.03335938 121.734375 174.79296875 C123.75 174.3125 123.75 174.3125 127.75 174.3125 C127.65550316 168.42642246 127.54921264 162.54071064 127.43261719 156.6550293 C127.39464939 154.65834169 127.3597444 152.66159315 127.328125 150.66479492 C127.09754311 136.27864657 126.40853354 122.54709124 122.1875 108.6875 C121.93210449 107.84703125 121.67670898 107.0065625 121.41357422 106.140625 C115.10779987 86.29391303 104.50206555 69.77574821 90.75 54.3125 C90.17894531 53.65636719 89.60789062 53.00023437 89.01953125 52.32421875 C68.79263757 30.53741039 36.42533654 17.21766181 7.09375 16.00390625 C-20.02504764 15.43202594 -43.83793947 21.77120228 -67.25 35.3125 C-66.21359375 35.57804687 -65.1771875 35.84359375 -64.109375 36.1171875 C-62.73952244 36.47372447 -61.36973412 36.8305083 -60 37.1875 C-59.31808594 37.36152344 -58.63617188 37.53554687 -57.93359375 37.71484375 C-49.10569853 40.02895221 -49.10569853 40.02895221 -46.25 44.3125 C-46.42864287 47.64716685 -46.69395023 50.2985269 -48.3125 53.25 C-54.28955277 56.52773861 -62.06457742 53.54537927 -68.20703125 52.046875 C-71.55844199 51.23806214 -74.81708247 50.64258822 -78.25 50.3125 C-78.93191406 50.16683594 -79.61382812 50.02117187 -80.31640625 49.87109375 C-82.96940362 49.50659498 -84.67127169 49.54310893 -87.25 50.3125 C-91.2090836 53.48735618 -94.18003469 57.31600277 -97.25 61.3125 C-98.01828125 62.25738281 -98.7865625 63.20226562 -99.578125 64.17578125 C-106.48877614 73.18022239 -111.65755458 83.15648072 -116.8972168 93.18725586 C-127.3103456 113.11542436 -127.3103456 113.11542436 -131.25 116.3125 C-134.86032183 116.70635329 -137.3193919 116.75331436 -140.625 115.1875 C-142.85731949 112.61174674 -142.97385683 110.68391957 -143.25 107.3125 C-142.45703125 104.875 -142.45703125 104.875 -141.0625 102.3125 C-140.50691406 101.27609375 -139.95132813 100.2396875 -139.37890625 99.171875 C-139.04906738 98.57568359 -138.71922852 97.97949219 -138.37939453 97.36523438 C-137.07243997 94.98977525 -135.8001564 92.59704751 -134.52734375 90.203125 C-113.41330206 50.69932215 -86.35619784 19.09291344 -41.93676758 5.58740234 C-28.00899142 1.57043174 -14.46627638 -0.07541514 0 0 Z " fill="#020100" transform="translate(245.25,31.6875)"/>
<path d="M0 0 C5.39646566 2.76289636 10.07443166 5.31464424 14 10 C14 10.66 14 11.32 14 12 C6.80213058 14.21111021 -0.46434635 14.60924885 -7.934021 15.14559937 C-48.28852236 18.13439663 -86.03721842 32.71303917 -114 63 C-135.43027051 88.01130788 -142.79116714 117.52803867 -141 150 C-139.23927347 167.03318511 -132.19511548 185.30811885 -122 199 C-121.43152344 199.78761719 -120.86304688 200.57523438 -120.27734375 201.38671875 C-107.34444587 218.43837392 -90.32048276 232.11850376 -72 243 C-75.40456918 246.40456918 -80.22762382 246.80920304 -84.8125 247.9375 C-85.88749756 248.20328857 -86.96249512 248.46907715 -88.07006836 248.74291992 C-103.13482455 252.35487271 -118.50364325 254.55458333 -134 255 C-134.88558594 255.02723145 -135.77117187 255.05446289 -136.68359375 255.08251953 C-168.86409103 255.93190517 -196.7283512 248.64050936 -222 228 C-222.68191406 227.44699219 -223.36382812 226.89398438 -224.06640625 226.32421875 C-225.39149164 225.23279111 -226.69913682 224.12018774 -228 223 C-227.34 222.67 -226.68 222.34 -226 222 C-224.01476201 222.67557352 -222.06031544 223.44245831 -220.125 224.25 C-202.92191355 231.04465449 -178.2371055 236.26807649 -159.9375 230.5 C-152.15817688 227.10103421 -146.12480204 221.63150086 -142.65625 213.859375 C-137.57999051 199.47663977 -142.22879789 187.4609154 -148.03417969 174.26806641 C-158.73227223 149.14539712 -157.6431936 117.88321808 -147.55517578 92.66967773 C-146.73869541 90.76132278 -145.88200364 88.87894798 -145 87 C-144.67370605 86.30326172 -144.34741211 85.60652344 -144.01123047 84.88867188 C-139.11024963 74.65218554 -133.29392583 65.67705277 -126 57 C-125.29746094 56.15695312 -124.59492188 55.31390625 -123.87109375 54.4453125 C-100.54667833 27.33239125 -65.82779253 10.03732048 -31 4 C-29.94425781 3.79375 -28.88851562 3.5875 -27.80078125 3.375 C-18.52756935 1.69953888 -9.38449311 1.81041428 0 2 C0 1.34 0 0.68 0 0 Z " fill="#E0843F" transform="translate(284,211)"/>
<path d="M0 0 C15.53500818 14.12273471 24.13465493 37.27554232 25.203125 57.92578125 C25.67966675 84.49981335 18.28411135 110.17162249 0 130 C-2.34909604 132.41516436 -4.72122462 134.79249769 -7.15234375 137.125 C-9.68960701 139.69981261 -10.95370909 141.27477571 -11.1875 144.9375 C-11.1401657 147.86318523 -11.1401657 147.86318523 -10.33862305 149.98706055 C-10 152 -10 152 -10.92114258 153.66333008 C-12.52482264 155.41156721 -14.13553503 157.13393071 -15.8125 158.8125 C-16.40909424 159.41416992 -17.00568848 160.01583984 -17.62036133 160.63574219 C-22.17365621 164.9070069 -22.17365621 164.9070069 -25.7421875 165.30859375 C-27.37457089 164.93570106 -29.00241388 164.54235368 -30.625 164.12890625 C-33.12068206 163.76314353 -33.12068206 163.76314353 -35.3125 165.46484375 C-36.96977071 167.01580927 -38.59671443 168.59954247 -40.19921875 170.20703125 C-55.13337128 185.09952645 -73.73176477 195.76199732 -93 204 C-93.95326172 204.41523926 -93.95326172 204.41523926 -94.92578125 204.83886719 C-103.42571684 208.48609628 -112.03412646 210.8814541 -121.0625 212.875 C-122.03848145 213.09051514 -123.01446289 213.30603027 -124.02001953 213.52807617 C-129.11765755 214.59012077 -133.79410892 215.24549278 -139 215 C-138.09815951 208.42944785 -138.09815951 208.42944785 -137.5 205.8125 C-136.81334474 201.95006414 -136.63762019 198.10132608 -136.4375 194.1875 C-136.39431641 193.39923828 -136.35113281 192.61097656 -136.30664062 191.79882812 C-136.20121679 189.86605785 -136.10016906 187.93304974 -136 186 C-135.67 186 -135.34 186 -135 186 C-135 188.31 -135 190.62 -135 193 C-122.54273324 188.71436951 -110.40085407 184.26810195 -98.80419922 177.97802734 C-97.04724942 177.02561315 -95.27570259 176.10028281 -93.50390625 175.17578125 C-86.74062295 171.51393547 -80.56173285 167.38714579 -74.4375 162.75 C-73.46598999 162.01777222 -73.46598999 162.01777222 -72.47485352 161.27075195 C-60.14860517 151.70022995 -49.14284953 140.37826302 -38.09716797 129.39233398 C-36.61659691 127.92331209 -35.13156236 126.45877505 -33.64208984 124.9987793 C-21.57053155 113.16441188 -9.95987172 101.05981368 -3.0625 85.375 C-2.69825928 84.57143066 -2.33401855 83.76786133 -1.95874023 82.93994141 C9.05687892 58.13928859 9.81285001 31.80822639 1.6484375 6.0859375 C1.0220422 4.07090683 0.49199449 2.05152418 0 0 Z " fill="#E0843F" transform="translate(472,249)"/>
<path d="M0 0 C19.49880338 18.9883635 33.04072739 48.90828674 34.08726501 76.28259277 C34.1150592 78.88558844 34.11251107 81.48674302 34.09765625 84.08984375 C34.0962413 85.03436905 34.09482635 85.97889435 34.09336853 86.95204163 C34.0878036 89.94722763 34.07525767 92.94233687 34.0625 95.9375 C34.05748046 97.97721246 34.05291835 100.01692609 34.04882812 102.05664062 C34.03784567 107.03778966 34.0206054 112.01888185 34 117 C29.0433543 118.45879516 24.08648515 119.91682642 19.1293335 121.37390137 C17.37073462 121.89099103 15.61234166 122.40878093 13.85400391 122.92675781 C-16.84382718 131.94643041 -16.84382718 131.94643041 -24 131 C-26.3359375 128.8125 -26.3359375 128.8125 -28.375 126 C-29.06335938 125.071875 -29.75171875 124.14375 -30.4609375 123.1875 C-31.22277344 122.1046875 -31.22277344 122.1046875 -32 121 C-29.21613301 119.14408867 -27.7076262 118.58199722 -24.5625 117.8125 C-12.49115394 114.27039699 -3.36254334 107.45519783 2.97265625 96.62890625 C9.41846983 84.56674541 10.43982214 73.87214062 10.4375 60.4375 C10.43889984 59.66532135 10.44029968 58.8931427 10.44174194 58.0975647 C10.41512715 40.18534263 7.65616033 23.27862432 0.91796875 6.609375 C0 4 0 4 0 0 Z " fill="#DF833F" transform="translate(339,89)"/>
<path d="M0 0 C3.95527549 0.59643043 7.42772043 1.87370784 11.12719727 3.32348633 C33.9918003 12.2514798 56.31276805 15.14117568 80.6875 15.25 C81.43058411 15.2554483 82.17366821 15.26089661 82.93927002 15.26651001 C93.13708314 15.32209351 102.92283043 14.61647116 113 13 C112.39624546 17.50672691 111.64467767 21.54360554 110.0625 25.8125 C109.55396484 27.21435547 109.55396484 27.21435547 109.03515625 28.64453125 C108 31 108 31 106 33 C70.61734969 36.18963095 28.0818063 22.99360981 0 1 C0 0.67 0 0.34 0 0 Z " fill="#DE823F" transform="translate(208,433)"/>
<path d="M0 0 C14.14037892 5.13589234 26.17311727 12.57814424 33.4375 26.203125 C35.49977552 30.76708133 36.84363037 34.06619925 35.8125 39.015625 C34.25 41.453125 34.25 41.453125 31.8125 43.015625 C25.79175814 43.75501435 25.79175814 43.75501435 23.265625 41.84765625 C21.39336538 39.48719991 20.3444459 37.0189871 19.125 34.265625 C14.49540986 24.835821 7.49141034 19.80015806 -2.1875 16.015625 C-5.86903725 14.92523339 -9.55252046 13.92378302 -13.28125 13.0078125 C-16.1875 12.015625 -16.1875 12.015625 -18.1875 9.015625 C-18.71008393 4.90960838 -18.8310772 2.87372794 -16.3125 -0.484375 C-10.7011321 -3.17783159 -5.78113917 -1.7853518 0 0 Z " fill="#040201" transform="translate(81.1875,252.984375)"/>
<path d="M0 0 C12.22447314 2.86386789 23.77701147 14.5693048 30.40234375 24.71875 C34.72717534 32.15241278 37.54658095 39.53184076 35.875 48.25 C33.47201188 51.20224255 32.01220859 51.96569785 28.375 52.875 C25.28824338 52.10331084 23.82918762 50.65620038 21.921875 48.1484375 C20.76240343 46.04581369 20.35138907 44.29666769 19.9375 41.9375 C18.18592774 32.13860992 10.7095961 25.16939934 2.875 19.6875 C0.20757146 17.83898395 -2.47009035 16.02463487 -5.1875 14.25 C-7.125 12.25 -7.125 12.25 -8.25 8.8125 C-8.125 5.25 -8.125 5.25 -6.125 2.25 C-3.125 0.25 -3.125 0.25 0 0 Z " fill="#050302" transform="translate(311.125,258.75)"/>
<path d="M0 0 C15.08582568 2.5445971 27.89969829 8.07378562 38 20 C40.34549674 23.51824511 40.57991403 24.85775694 40 29 C37.9375 31.9375 37.9375 31.9375 35 34 C31.625 34.3125 31.625 34.3125 28 33 C26.13104425 31.12671796 24.52265338 29.12291772 22.86328125 27.0625 C16.21174434 19.69979248 4.17921988 16.12966618 -5.4375 15.5 C-8.66441773 15.25577273 -10.13908913 14.93045543 -13.125 13.4375 C-15.949661 9.7654407 -15.58010568 7.56833225 -15 3 C-11.5047759 -1.97701814 -5.39843805 -0.51862724 0 0 Z " fill="#040301" transform="translate(169,174)"/>
<path d="M0 0 C12.73744967 4.16894244 23.82524495 10.95673875 30.609375 22.8125 C32.98507966 27.72406919 34.49349976 31.45761807 34 37 C31.9375 39.9375 31.9375 39.9375 29 42 C25.375 42.0625 25.375 42.0625 22 41 C19.32631359 38.06365926 17.99426883 34.80756842 16.4375 31.1875 C12.17415171 22.5662957 5.93169013 18.89410444 -2.9375 15.75 C-3.83339844 15.47671875 -4.72929687 15.2034375 -5.65234375 14.921875 C-8.15278275 13.94000544 -9.38908092 13.13576691 -11 11 C-11.49573337 7.10495209 -11.58016848 4.90506283 -9.4375 1.5625 C-6.11960209 -0.56435764 -3.75857906 -0.77461755 0 0 Z " fill="#040201" transform="translate(279,95)"/>
<path d="M0 0 C9.85236856 5.1473599 17.41030362 14.92618125 21.18359375 25.16796875 C22.3518386 29.22049275 22.73436666 31.81411005 22 36 C19.9375 39.0625 19.9375 39.0625 17 41 C13.375 41.0625 13.375 41.0625 10 40 C7.47333204 37.25520243 6.52862816 34.84339106 5.6875 31.25 C3.33421726 23.0013801 -1.37433024 17.99236148 -8.36328125 13.2265625 C-10 12 -10 12 -11 10 C-11.38503376 6.45768939 -11.41935959 4.63742658 -9.4375 1.625 C-5.94740709 -0.7017286 -4.13674184 -0.68945697 0 0 Z " fill="#040301" transform="translate(404,292)"/>
</svg>
